<?xml version="1.0" standalone="no"?>
<!DOCTYPE svg PUBLIC "-//W3C//DTD SVG 20010904//EN"
 "http://www.w3.org/TR/2001/REC-SVG-20010904/DTD/svg10.dtd">
<svg version="1.0" xmlns="http://www.w3.org/2000/svg"
 width="1280.000000pt" height="1280.000000pt" viewBox="0 0 1280.000000 1280.000000"
 preserveAspectRatio="xMidYMid meet">

<g transform="translate(0.000000,1280.000000) scale(0.100000,-0.100000)"
fill="#000000" stroke="none">
<path d="M6220 11179 c-123 -15 -189 -38 -241 -85 -50 -44 -63 -49 -204 -79
-72 -15 -84 -21 -121 -61 -54 -58 -97 -71 -257 -83 -135 -10 -209 -29 -287
-72 -44 -25 -56 -48 -41 -78 6 -11 11 -36 11 -55 0 -50 -28 -76 -81 -76 -55 0
-105 -31 -119 -76 -11 -32 -23 -40 -145 -99 -107 -52 -144 -75 -190 -122 -55
-56 -117 -149 -149 -227 -22 -54 -20 -150 5 -226 14 -44 19 -76 15 -104 -22
-144 -28 -253 -16 -301 6 -27 15 -91 19 -142 7 -83 11 -97 50 -162 36 -61 43
-82 48 -144 3 -39 18 -108 33 -153 16 -44 32 -103 36 -130 4 -27 22 -86 41
-131 27 -65 44 -90 80 -119 25 -20 59 -58 77 -84 42 -65 104 -158 133 -201 12
-19 23 -39 23 -43 0 -4 14 -28 31 -52 37 -55 29 -75 -29 -67 -28 3 -33 2 -22
-6 8 -5 38 -13 67 -17 40 -5 66 -17 115 -52 35 -26 67 -52 71 -59 5 -8 12 -11
18 -8 5 4 9 -10 9 -29 0 -31 4 -36 28 -42 15 -3 33 -8 41 -10 22 -7 64 25 58
46 -7 27 6 41 43 46 18 3 44 10 57 15 13 5 40 9 58 9 19 0 53 7 75 16 30 12
57 15 99 11 77 -8 111 -28 133 -77 11 -23 27 -44 36 -47 9 -4 28 -20 42 -36
27 -31 78 -54 152 -67 26 -5 62 -16 81 -25 18 -8 67 -19 109 -24 42 -5 82 -12
89 -17 8 -4 34 -11 59 -15 25 -4 65 -15 90 -24 30 -11 90 -19 184 -22 144 -6
220 -25 233 -59 3 -7 9 -12 13 -9 13 8 24 -15 24 -50 1 -46 -54 -64 -234 -75
-162 -9 -256 -26 -282 -48 -10 -9 -18 -29 -18 -47 0 -56 -40 -75 -200 -95
-104 -13 -120 -18 -120 -33 1 -14 81 -57 106 -57 26 0 84 -31 84 -45 0 -7 3
-15 8 -17 4 -1 37 -37 74 -79 37 -42 78 -79 90 -82 13 -3 55 -15 93 -27 68
-20 72 -20 140 -3 39 9 75 17 80 18 25 2 146 65 151 79 3 9 12 16 18 16 7 0
25 14 41 30 16 17 34 30 40 30 6 0 21 9 33 20 34 32 108 60 141 54 64 -13 131
-125 131 -219 0 -20 18 -80 39 -133 22 -53 53 -147 70 -208 36 -128 32 -163
-20 -184 -16 -7 -29 -16 -29 -20 0 -4 -18 -26 -40 -48 l-40 -40 44 -21 c36
-18 45 -28 50 -56 7 -37 -1 -85 -14 -85 -5 0 -28 -25 -51 -55 -31 -39 -46 -51
-55 -44 -7 6 -14 6 -18 1 -3 -5 -26 -13 -51 -16 -36 -6 -45 -11 -45 -27 0 -12
7 -19 20 -19 11 0 20 -4 20 -10 0 -5 9 -10 21 -10 13 0 18 4 13 13 -5 6 7 0
25 -15 18 -16 38 -28 44 -28 12 0 77 -68 77 -81 0 -8 -33 -19 -120 -38 -61
-14 -206 -14 -233 1 -29 15 -161 23 -153 9 4 -7 -1 -11 -13 -11 -14 0 -21 -6
-21 -19 0 -10 -7 -21 -15 -25 -11 -4 -15 -20 -15 -55 0 -29 -5 -51 -12 -53 -6
-2 6 -17 28 -34 21 -16 41 -32 42 -36 2 -5 15 -8 30 -8 46 0 14 -12 -40 -15
-29 -2 -45 -1 -35 2 9 2 17 13 17 23 0 13 -5 17 -20 13 -11 -3 -20 -9 -20 -14
0 -10 -112 0 -120 11 -3 3 -21 12 -40 20 -19 7 -52 29 -73 47 -21 19 -42 31
-47 28 -6 -4 -10 -2 -10 4 0 12 -155 91 -179 91 -9 0 -26 7 -38 15 -17 12 -31
14 -65 6 -97 -21 -208 -31 -298 -26 -262 16 -537 83 -735 180 -49 24 -112 51
-139 60 -27 8 -57 27 -68 41 -11 13 -43 36 -71 51 -53 26 -147 113 -208 193
-29 37 -34 52 -34 97 0 34 5 58 15 68 9 8 78 46 155 84 77 38 154 81 170 96
l30 26 -70 -6 c-171 -14 -312 -72 -414 -168 -42 -39 -82 -68 -110 -77 -24 -7
-91 -43 -150 -78 -58 -35 -180 -102 -271 -149 -163 -85 -231 -125 -260 -152
-12 -12 -11 -13 5 -8 11 3 39 8 61 12 38 6 44 4 62 -22 12 -18 19 -43 18 -68
-1 -49 -35 -75 -122 -94 -33 -7 -94 -22 -136 -32 -105 -26 -201 -25 -225 0
-18 19 -20 19 -118 -18 -415 -158 -712 -333 -869 -512 -32 -37 -75 -96 -95
-131 -49 -83 -244 -483 -296 -603 -20 -48 -53 -120 -72 -157 -7 -14 -13 -32
-13 -40 0 -7 -9 -30 -20 -51 -11 -20 -20 -42 -20 -47 0 -9 -29 -74 -98 -218
-19 -40 -87 -110 -102 -105 -3 1 -12 -5 -20 -12 -8 -7 -27 -17 -42 -20 -16 -4
-28 -10 -28 -14 0 -4 -26 -13 -58 -20 -43 -9 -78 -10 -137 -2 -44 5 -124 10
-179 11 -54 0 -103 3 -109 7 -5 3 -259 7 -563 9 l-554 4 0 -1170 0 -1170 35 0
c19 0 58 9 87 19 57 21 328 57 353 47 8 -3 15 -2 15 3 0 4 6 8 13 8 58 4 137
17 137 24 0 4 70 5 156 2 123 -5 158 -3 164 7 7 11 17 11 57 0 26 -7 53 -16
58 -21 6 -4 33 -9 60 -12 28 -3 73 -10 100 -15 28 -5 100 -17 160 -26 61 -9
126 -24 147 -32 41 -18 110 -24 181 -16 34 3 45 8 35 14 -9 6 -6 7 10 3 13 -4
29 -1 38 6 12 9 20 9 39 -1 14 -7 28 -10 31 -7 6 6 -6 12 -65 33 -30 10 -1 15
35 5 22 -6 55 -13 74 -16 118 -19 161 -30 305 -79 88 -30 194 -69 235 -86 41
-18 109 -44 150 -60 112 -42 287 -120 313 -140 12 -9 42 -27 66 -40 47 -23 71
-43 71 -57 0 -4 7 -21 16 -38 17 -33 14 -137 -5 -172 -14 -25 -55 -188 -85
-338 -35 -174 -68 -265 -107 -301 -10 -9 -19 -22 -19 -29 0 -7 -9 -20 -20 -30
-11 -10 -20 -24 -20 -32 0 -7 -7 -16 -15 -19 -8 -4 -15 -14 -15 -24 0 -10 -16
-30 -35 -44 -77 -59 -153 -56 1239 -56 l1273 0 18 57 c14 42 31 69 69 106 60
59 87 76 227 150 59 30 138 76 177 101 102 65 214 115 322 143 89 23 113 24
390 26 421 3 596 -17 680 -76 13 -9 30 -17 37 -17 7 0 13 -7 13 -15 0 -10 10
-15 29 -15 48 0 61 -9 51 -34 -10 -28 19 -49 55 -40 30 7 55 -10 55 -38 0 -15
-4 -18 -12 -11 -19 14 -110 10 -115 -4 -3 -8 5 -13 21 -13 16 0 26 -6 26 -15
0 -22 27 -18 44 6 15 22 15 22 43 3 15 -10 39 -24 53 -31 l25 -11 -27 -1 c-18
-1 -28 -6 -28 -16 0 -8 5 -15 10 -15 6 0 10 -7 10 -15 0 -9 -9 -15 -25 -15
-18 0 -25 -5 -25 -20 0 -23 31 -41 38 -22 2 7 10 12 18 12 10 0 12 8 8 29 -8
37 6 44 51 26 41 -18 46 -50 8 -50 -13 0 -23 -3 -23 -7 0 -5 0 -13 0 -19 0 -6
7 -8 16 -5 10 4 35 -10 67 -37 29 -23 64 -49 80 -57 15 -7 30 -24 33 -37 l6
-23 1510 0 c1005 0 1507 3 1503 10 -3 6 6 15 21 20 15 6 33 18 39 27 13 17 68
28 210 39 58 5 103 2 163 -10 45 -10 135 -21 200 -25 100 -6 124 -11 167 -34
l50 -27 188 2 188 3 -30 40 c-28 39 -29 42 -14 72 17 36 40 46 146 64 58 10
95 10 170 1 53 -7 151 -12 219 -12 68 0 164 -7 213 -15 50 -8 107 -15 128 -15
l37 0 0 356 c0 328 -1 356 -17 350 -70 -27 -258 -57 -363 -57 -64 0 -156 -6
-204 -13 -60 -9 -101 -10 -125 -4 -20 5 -47 12 -61 15 -14 3 -52 16 -85 28
-98 39 -217 51 -337 36 -209 -25 -408 -33 -530 -22 -164 16 -218 14 -240 -6
-21 -19 -19 -43 -23 297 -4 280 -11 485 -21 529 -5 25 -4 32 4 27 8 -5 12 0
12 13 0 12 4 21 10 21 20 0 29 36 19 73 -7 28 -14 35 -29 32 -16 -3 -20 3 -25
33 -9 56 -23 125 -30 147 -5 18 2 24 62 44 37 12 76 27 86 32 37 20 151 57
133 43 -11 -7 -25 -14 -32 -14 -7 0 -15 -4 -19 -9 -7 -12 66 -2 80 10 12 12
28 11 20 0 -5 -9 95 -8 308 4 80 4 165 24 192 44 5 4 60 13 120 19 113 12 227
4 248 -17 6 -6 18 -11 26 -11 29 0 101 -33 101 -46 0 -8 10 -14 23 -14 16 0
26 -9 33 -28 11 -27 15 -29 87 -36 42 -4 135 -4 207 0 95 5 130 4 130 -5 0 -7
25 -11 73 -11 55 0 83 5 119 22 l47 23 1 1008 0 1009 -187 -8 c-104 -4 -197
-7 -208 -7 -30 2 -269 -16 -460 -33 -116 -11 -288 -17 -541 -17 -334 -1 -374
1 -397 16 -15 9 -40 17 -56 17 -16 0 -32 4 -35 9 -3 5 -23 12 -43 16 -21 4
-40 7 -43 8 -19 5 -82 154 -160 382 -27 77 -66 183 -88 235 -22 52 -63 160
-92 238 -28 79 -74 194 -102 255 -28 62 -61 139 -73 173 -47 125 -89 183 -320
429 -11 12 -38 42 -60 66 -64 70 -155 144 -225 182 -93 51 -393 150 -580 191
-41 9 -149 41 -240 71 -174 57 -256 81 -485 146 -256 72 -410 132 -444 173
-13 15 -2 51 57 191 16 39 41 108 57 155 15 47 34 104 42 126 23 70 30 180 26
411 -4 148 -1 232 6 255 6 18 15 76 20 128 6 52 22 172 36 265 15 94 31 198
36 233 11 79 19 94 62 107 70 20 277 239 277 292 0 33 12 63 25 63 35 0 60
190 35 256 -6 15 -16 64 -22 108 -13 104 -68 223 -183 395 -75 113 -84 131
-79 162 5 30 -2 44 -63 128 -37 52 -94 121 -126 154 -32 33 -72 84 -88 113
-34 60 -134 175 -201 231 -25 21 -60 55 -78 76 -49 57 -318 257 -345 257 -15
0 -119 72 -167 116 -114 104 -237 146 -475 162 -103 7 -138 13 -159 28 -62 44
-80 54 -99 54 -24 0 -223 86 -246 106 -8 8 -17 13 -20 13 -2 -1 -33 -5 -69
-10z m-975 -438 c8 -13 -5 -19 -56 -27 -40 -7 -43 -6 -31 9 12 14 31 21 69 26
6 0 14 -3 18 -8z m-265 -231 c0 -5 -7 -10 -16 -10 -8 0 -12 5 -9 10 3 6 10 10
16 10 5 0 9 -4 9 -10z m-370 -475 c0 -9 -7 -18 -15 -21 -8 -4 -12 -10 -10 -15
3 -4 -3 -14 -15 -21 -11 -7 -20 -18 -20 -25 0 -7 -5 -13 -12 -13 -6 0 -23 -10
-36 -22 -21 -20 -24 -20 -19 -5 4 10 7 27 7 38 0 27 78 95 113 98 4 1 7 -6 7
-14z m4158 -3902 c-10 -2 -28 -2 -40 0 -13 2 -5 4 17 4 22 1 32 -1 23 -4z
m-4818 -343 c0 -4 -6 -12 -12 -17 -20 -15 -217 -91 -270 -104 -68 -16 -76 -30
-49 -82 13 -24 19 -50 15 -60 -9 -26 -50 -21 -71 9 -10 14 -35 48 -56 75 -21
28 -36 56 -34 63 6 15 102 51 207 78 206 53 270 62 270 38z m256 -247 c32 -17
64 -59 64 -86 0 -9 -6 -22 -14 -29 -7 -8 -39 -52 -71 -99 -77 -114 -133 -181
-177 -213 -45 -32 -53 -32 -100 0 -42 29 -43 44 -8 94 14 20 16 29 7 41 -20
26 -53 39 -103 39 -42 0 -51 4 -86 40 -55 59 -51 73 30 100 37 12 99 36 137
52 108 47 237 86 265 81 14 -3 39 -12 56 -20z m4234 -153 c0 -5 -2 -10 -4 -10
-3 0 -8 5 -11 10 -3 6 -1 10 4 10 6 0 11 -4 11 -10z m140 -40 c0 -24 -20 -40
-51 -40 -42 0 -74 -15 -93 -44 -13 -21 -14 -30 -5 -49 7 -12 18 -26 25 -30 21
-12 17 -31 -14 -60 -30 -29 -60 -34 -95 -15 -55 28 -103 121 -75 142 8 6 17
19 21 29 4 10 17 17 31 17 32 0 93 50 75 61 -7 4 31 7 84 7 83 -1 97 -4 97
-18z m-4095 -44 c69 -18 152 -62 169 -89 31 -47 30 -74 -2 -107 -17 -16 -40
-30 -52 -30 -41 0 -150 43 -155 61 -7 21 -35 14 -35 -7 0 -8 -6 -14 -14 -14
-8 0 -43 -27 -78 -61 l-63 -60 24 -20 c20 -16 33 -18 86 -13 48 5 70 3 98 -11
21 -9 37 -21 37 -26 0 -4 -16 -24 -35 -42 -40 -39 -103 -59 -143 -47 -114 34
-212 107 -212 159 0 29 33 83 83 134 18 19 47 51 65 73 58 70 105 101 172 113
3 0 28 -5 55 -13z m3483 -90 c-3 -21 -9 -22 -60 -10 -20 5 -35 -1 -62 -22 -20
-16 -36 -34 -36 -41 0 -6 17 -21 37 -33 36 -21 38 -21 82 -4 25 9 75 30 109
46 57 26 67 28 93 17 146 -60 156 -160 26 -253 -88 -63 -142 -86 -204 -86 -45
0 -56 4 -83 32 -18 17 -42 48 -55 67 -12 20 -30 42 -39 50 -9 7 -16 18 -16 24
0 5 -11 24 -24 41 -32 42 -56 91 -56 113 1 35 75 67 185 79 27 3 51 7 53 8 1
2 14 1 28 -2 19 -3 24 -10 22 -26z m-3108 -110 c40 -12 45 -17 44 -42 0 -16
-4 -36 -8 -45 -10 -23 18 -49 46 -41 13 3 38 14 56 24 42 23 115 24 138 1 9
-10 23 -32 30 -49 8 -18 18 -35 24 -39 5 -3 10 -24 10 -46 0 -32 3 -40 17 -37
9 2 21 17 27 34 19 53 39 66 93 59 128 -17 150 -25 163 -56 18 -42 37 -50 83
-32 40 16 110 13 147 -7 25 -13 21 -63 -16 -180 -14 -47 -28 -94 -31 -105 -3
-11 -11 -34 -19 -52 -8 -17 -14 -36 -14 -43 0 -7 -10 -26 -22 -42 l-21 -31
-79 6 c-102 8 -128 21 -145 72 -12 38 -48 73 -61 61 -3 -3 -5 -24 -4 -45 2
-46 -9 -58 -32 -36 -8 9 -40 27 -71 41 -30 14 -55 31 -55 37 0 7 7 44 15 82
21 97 4 215 -38 262 l-19 21 -37 -20 c-94 -52 -97 -57 -105 -162 -3 -52 -9
-102 -12 -111 -8 -20 -40 -19 -91 5 -33 15 -43 24 -43 43 0 31 -19 87 -30 87
-5 0 -15 3 -23 6 -8 3 -21 -1 -28 -9 -8 -7 -26 -21 -41 -31 -26 -17 -30 -17
-77 -1 -69 22 -78 36 -56 82 36 80 83 170 110 213 16 25 40 66 53 93 27 53 42
57 122 33z m2656 -82 c67 -46 217 -195 262 -260 29 -43 21 -56 -45 -74 -33
-10 -59 -11 -92 -4 -77 16 -141 -10 -141 -55 0 -16 -8 -38 -17 -49 -19 -21
-86 -44 -106 -36 -13 5 -42 109 -63 229 -8 44 -21 94 -30 111 -9 18 -14 49
-12 75 l3 44 65 22 c87 30 128 29 176 -3z m-387 -108 c9 -11 6 -26 -14 -69
-29 -64 -40 -74 -53 -51 -13 24 -42 10 -42 -20 0 -33 17 -42 39 -22 17 16 19
15 23 -9 3 -14 -5 -58 -18 -98 -14 -39 -22 -78 -19 -86 3 -7 0 -20 -6 -27 -15
-18 -2 -36 24 -32 18 2 22 -2 22 -22 0 -20 -6 -26 -35 -31 -19 -3 -42 -9 -51
-13 -32 -14 -54 33 -121 263 -17 58 -40 71 -103 61 -27 -4 -65 -5 -82 -3 -39
7 -59 -8 -68 -47 -5 -25 -13 -30 -56 -39 -63 -14 -106 -14 -114 -1 -7 12 -65
13 -81 2 -18 -12 -23 -40 -10 -51 7 -6 51 -10 97 -10 85 1 147 -15 165 -42 15
-23 32 -172 22 -191 -14 -29 -63 -48 -151 -61 -96 -13 -262 -16 -274 -4 -4 5
-8 36 -8 70 l0 61 65 13 c43 9 70 11 81 4 9 -5 37 -12 62 -16 38 -6 47 -4 55
12 6 11 8 24 4 30 -4 5 -49 13 -100 16 -100 7 -174 33 -192 66 -5 11 -15 52
-22 91 -12 70 -12 73 10 91 13 10 40 21 60 25 20 3 83 14 140 25 57 10 143 19
193 19 63 0 96 4 113 15 25 17 98 34 276 66 63 11 116 22 119 25 9 9 39 3 50
-10z m-1098 -139 c13 -22 6 -140 -11 -222 -6 -27 -14 -81 -17 -120 -3 -38 -10
-76 -15 -82 -13 -16 -69 -17 -102 -2 -28 13 -35 33 -25 69 4 14 8 72 8 130 2
116 17 241 30 250 5 3 34 3 65 2 45 -3 59 -8 67 -25z m299 -1546 c0 -21 -68
-39 -150 -39 -102 -1 -88 13 24 23 44 4 89 11 100 15 12 5 22 9 24 9 1 1 2 -3
2 -8z m6391 -374 c75 -63 64 -153 -22 -177 -50 -15 -62 -13 -102 18 -44 33
-49 75 -16 129 35 56 95 69 140 30z m-401 -807 c0 -5 -18 -10 -40 -10 -22 0
-40 5 -40 10 0 6 18 10 40 10 22 0 40 -4 40 -10z m-1942 -268 c9 -10 18 -25
20 -33 2 -8 12 -20 22 -28 11 -7 20 -24 20 -37 0 -13 9 -33 20 -44 23 -23 29
-105 8 -113 -8 -3 -5 -6 6 -6 16 -1 17 -6 11 -38 -4 -21 -11 -39 -16 -41 -5
-2 -9 -10 -9 -17 0 -7 -7 -16 -16 -19 -15 -6 -15 -8 0 -31 20 -31 11 -79 -20
-104 -25 -19 -32 -41 -14 -41 6 0 10 5 10 10 0 6 7 10 15 10 8 0 15 -7 15 -15
0 -8 -6 -15 -14 -15 -8 0 -22 -10 -32 -22 -10 -15 -14 -17 -11 -6 4 11 2 15
-7 12 -7 -3 -18 -20 -23 -37 l-10 -32 -8 30 c-4 17 -16 42 -26 56 -10 14 -20
38 -23 53 -3 15 -10 34 -17 42 -6 7 -9 21 -5 29 3 8 2 15 -3 15 -5 0 -12 17
-16 38 -4 20 -11 42 -15 47 -8 10 -28 137 -33 208 -1 19 -8 27 -22 28 -17 1
-16 2 5 9 14 4 19 8 13 9 -18 1 -16 21 2 21 7 0 18 6 22 14 4 7 32 21 60 30
29 10 55 22 58 27 8 13 13 12 33 -9z"/>
<path d="M4450 5170 c0 -5 9 -10 20 -10 11 0 20 5 20 10 0 6 -9 10 -20 10 -11
0 -20 -4 -20 -10z"/>
<path d="M8022 5019 c-13 -5 -36 -6 -50 -3 l-27 5 24 -20 c28 -25 83 -28 102
-5 10 13 10 17 -2 25 -17 10 -17 10 -47 -2z"/>
<path d="M4650 7997 c-31 -16 -37 -43 -14 -68 17 -19 59 -26 66 -11 2 4 18 18
36 31 17 12 32 28 32 36 0 25 -78 33 -120 12z"/>
<path d="M4767 7753 c-25 -24 21 -136 53 -130 8 1 15 7 16 12 2 22 17 45 30
45 8 0 14 6 14 13 0 7 10 18 22 26 21 13 21 14 3 27 -19 14 -126 20 -138 7z"/>
<path d="M6685 6600 c-8 -14 3 -30 21 -30 8 0 14 9 14 20 0 21 -24 28 -35 10z"/>
<path d="M6700 6520 c0 -5 -13 -10 -30 -10 -22 0 -30 -5 -30 -18 0 -10 -9 -36
-19 -58 -17 -35 -18 -41 -4 -56 14 -16 16 -16 36 3 11 10 29 19 39 19 13 0 18
8 19 28 0 24 1 25 10 7 8 -17 9 -17 4 5 -2 14 -5 40 -5 58 0 17 -4 32 -10 32
-5 0 -10 -4 -10 -10z"/>
<path d="M7065 6323 c-121 -17 -132 -45 -16 -44 78 1 121 8 121 22 0 11 -45
30 -63 28 -7 -1 -25 -4 -42 -6z"/>
<path d="M10858 2033 c7 -3 16 -2 19 1 4 3 -2 6 -13 5 -11 0 -14 -3 -6 -6z"/>
<path d="M12720 1850 c0 -6 -33 -10 -80 -10 -64 0 -80 -3 -80 -15 0 -11 -11
-15 -40 -15 -33 0 -40 -3 -40 -20 0 -18 -7 -20 -80 -20 -47 0 -80 4 -80 10 0
6 -47 10 -120 10 -100 0 -120 -2 -120 -15 0 -8 -5 -15 -10 -15 -7 0 -7 -6 0
-19 5 -11 10 -29 10 -40 0 -12 5 -21 11 -21 6 0 8 -8 5 -18 -8 -26 37 -66 104
-92 45 -18 67 -21 122 -16 37 3 79 11 95 17 15 6 78 14 139 18 101 8 113 11
137 35 20 19 36 26 67 26 l40 0 0 105 0 105 -40 0 c-22 0 -40 -4 -40 -10z"/>
<path d="M0 1335 l0 -75 39 0 c22 0 41 -5 43 -10 4 -14 238 -27 238 -13 0 5
27 18 59 29 l59 18 -25 23 c-30 29 -85 42 -183 44 l-75 2 60 6 c71 7 51 16
-62 27 -40 3 -73 11 -73 15 0 5 -18 9 -40 9 l-40 0 0 -75z"/>
<path d="M912 1288 c-18 -18 -15 -36 7 -48 29 -15 39 -12 43 13 3 21 8 22 77
22 51 0 76 4 79 13 5 17 -189 17 -206 0z"/>
<path d="M855 1270 c3 -5 10 -10 16 -10 5 0 9 5 9 10 0 6 -7 10 -16 10 -8 0
-12 -4 -9 -10z"/>
<path d="M1320 1240 c0 -42 0 -42 33 -36 17 3 62 8 100 12 54 5 67 10 67 24 0
14 -13 19 -67 24 -38 4 -83 9 -100 12 -33 6 -33 6 -33 -36z"/>
<path d="M385 1033 c-32 -8 -64 -44 -71 -80 -10 -53 21 -191 54 -238 31 -45
67 -53 86 -20 6 11 14 22 17 25 14 11 22 80 20 168 -2 82 -5 97 -24 117 -25
25 -52 35 -82 28z"/>
<path d="M1235 533 c-85 -4 -217 -24 -285 -44 -60 -17 -150 -35 -309 -61 -64
-10 -151 3 -151 23 0 22 -45 6 -76 -26 -50 -52 -74 -58 -179 -46 -50 6 -123
12 -162 15 l-73 5 0 -200 0 -199 968 0 967 0 -3 147 c-4 184 -19 245 -65 266
-84 39 -165 58 -261 64 -56 3 -141 16 -191 28 -118 30 -122 30 -180 28z"/>
<path d="M7106 442 c-11 -17 11 -33 37 -26 30 7 35 19 11 28 -22 8 -42 8 -48
-2z"/>
<path d="M7190 425 c7 -9 15 -13 17 -11 7 7 -7 26 -19 26 -6 0 -6 -6 2 -15z"/>
<path d="M6905 339 c-4 -12 -3 -50 4 -129 2 -18 6 -12 16 25 18 65 18 90 0
105 -12 10 -16 10 -20 -1z"/>
<path d="M7001 336 c-9 -10 -9 -30 -2 -77 6 -35 10 -98 10 -139 -1 -82 7 -123
25 -117 13 5 20 154 13 297 -2 48 -23 64 -46 36z"/>
<path d="M7104 339 c-4 -8 -7 -28 -5 -46 1 -17 -3 -41 -9 -53 -9 -17 -8 -25 4
-39 12 -13 15 -37 13 -106 -2 -77 0 -90 15 -93 11 -2 18 5 20 20 4 33 36 35
48 4 6 -17 17 -26 31 -26 20 0 21 3 15 54 -3 29 -13 66 -21 82 l-15 29 0 -42
c0 -37 -3 -43 -25 -49 -14 -4 -28 -4 -31 -2 -2 3 -6 62 -7 131 -3 122 -14 167
-33 136z"/>
<path d="M7183 328 c-28 -14 -29 -22 -3 -48 14 -14 20 -33 20 -65 0 -25 4 -45
9 -45 19 0 25 161 6 166 -5 1 -20 -2 -32 -8z"/>
<path d="M7327 231 c5 -21 29 -35 44 -25 15 9 -10 44 -30 44 -14 0 -18 -5 -14
-19z"/>
<path d="M7311 94 c0 -11 3 -14 6 -6 3 7 2 16 -1 19 -3 4 -6 -2 -5 -13z"/>
<path d="M6905 68 c-9 -23 -2 -61 11 -65 18 -6 25 50 9 66 -12 13 -15 12 -20
-1z"/>
<path d="M7310 35 c0 -19 5 -35 10 -35 6 0 10 16 10 35 0 19 -4 35 -10 35 -5
0 -10 -16 -10 -35z"/>
</g>
</svg>
